<?xml version="1.0" encoding="utf-8"?>
<!-- Generator: Adobe Illustrator 16.0.0, SVG Export Plug-In . SVG Version: 6.00 Build 0)  -->
<!DOCTYPE svg PUBLIC "-//W3C//DTD SVG 1.0//EN" "http://www.w3.org/TR/2001/REC-SVG-20010904/DTD/svg10.dtd">
<svg version="1.0" id="Capa_1" xmlns="http://www.w3.org/2000/svg" xmlns:xlink="http://www.w3.org/1999/xlink" x="0px" y="0px"
	 width="297.223px" height="66.666px" viewBox="0 0 297.223 66.666" enable-background="new 0 0 297.223 66.666"
	 xml:space="preserve">
<path fill-rule="evenodd" clip-rule="evenodd" fill="#949599" d="M164.224,26.808c4.902-4.854,8.516-4.692,11.461,0.352
	c0.445-0.579,0.855-1.157,1.311-1.697c2.579-3.061,8.645-3.23,10.311,1.978c0.392,1.222,0.691,2.466,0.696,3.75
	c0.023,5.796,0.006,11.593,0.043,17.39c0.005,0.802-0.258,0.994-1.024,1.001c-3.059,0.024-3.059,0.05-3.059-3.031
	c-0.001-4.598-0.004-9.194,0-13.792c0.002-1.369-0.127-2.714-0.678-3.985c-0.915-2.115-3.34-2.653-5.033-1.093
	c-1.21,1.114-1.768,2.542-1.772,4.176c-0.016,5.477-0.053,10.954,0.003,16.43c0.011,1.093-0.313,1.328-1.342,1.303
	c-2.749-0.067-2.75-0.02-2.75-2.744c0-4.797,0.008-9.594-0.007-14.392c-0.003-1.2-0.12-2.397-0.566-3.526
	c-0.916-2.32-3.434-2.847-5.252-1.126c-1.647,1.559-1.767,3.618-1.787,5.658c-0.05,4.917-0.048,9.835,0.014,14.751
	c0.014,1.102-0.285,1.413-1.387,1.381c-2.702-0.08-2.699-0.025-2.705-2.688c-0.016-6.995-0.025-13.992-0.061-20.988
	c-0.012-2.224-0.043-2.171,2.201-2.235c1.032-0.029,1.503,0.253,1.393,1.329C164.181,25.517,164.224,26.036,164.224,26.808z"/>
<path fill-rule="evenodd" clip-rule="evenodd" fill="#54BBBC" d="M14.331,26.625c0.54-0.596,0.929-1.293,1.527-1.824
	c2.509-2.225,6.3-1.94,8.404,0.669c1.634,2.026,2.327,4.44,2.669,6.946c0.484,3.544,0.437,7.095-0.472,10.58
	c-0.583,2.234-1.536,4.297-3.435,5.746c-2.729,2.084-5.792,1.692-7.981-0.979c-0.093-0.113-0.14-0.291-0.505-0.22
	c0,1.06-0.067,2.162,0.013,3.255c0.198,2.714,0.021,5.43,0.109,8.143c0.024,0.746-0.224,0.939-0.949,0.948
	c-3.282,0.041-3.279,0.063-3.282-3.187c-0.01-9.67-0.017-19.338-0.041-29.008c-0.003-1.036-0.118-2.071-0.167-3.106
	c-0.011-0.234-0.039-0.633,0.067-0.681c1.021-0.466,2.111-0.202,3.167-0.176c0.792,0.02,0.503,0.76,0.565,1.225
	C14.093,25.5,13.932,26.083,14.331,26.625z M14.526,36.752c0,0.925-0.044,2.085,0.009,3.241c0.091,1.969,0.325,3.913,1.729,5.469
	c1.398,1.55,3.658,1.48,4.861-0.196c0.435-0.605,0.785-1.311,1.011-2.021c0.973-3.063,0.922-6.221,0.703-9.374
	c-0.131-1.879-0.565-3.694-1.573-5.333c-1.137-1.85-3.146-2.179-4.76-0.744c-1.035,0.92-1.452,2.168-1.741,3.468
	C14.379,33,14.624,34.766,14.526,36.752z"/>
<path fill-rule="evenodd" clip-rule="evenodd" fill="#54BBBC" d="M274.154,54.405c-2.615,0.619-5.373,0.775-8.117,0.512
	c-10.153-0.976-18.054-5.348-21.843-15.309c-1.768-4.649-1.679-9.482,0.002-14.219c1.052-2.966,2.75-5.501,4.861-7.853
	c1.252-1.395,2.882-2.215,4.198-3.469c0.337-0.32,0.673-0.413,0.423-0.994c-0.269-0.626,0.037-1.237,0.599-1.538
	c0.539-0.289,1.168-0.28,1.641,0.259c0.467,0.531,0.488,1.187,0.058,1.643c-0.645,0.684-0.194,1.228-0.016,1.861
	c1.285,4.559,3.261,8.829,5.406,13.029c0.182,0.355,0.36,0.719,0.596,1.038c0.551,0.748,1.564,0.877,2.265,0.295
	c5.587-4.649,11.872-8.122,18.493-11.041c1.159-0.511,2.288-1.087,3.521-1.398c0.433-0.109,0.378-0.422,0.448-0.729
	c0.213-0.921,0.811-1.443,1.741-1.148c0.799,0.254,1.048,1.021,0.77,1.764c-0.327,0.872-1.083,1.05-1.878,0.636
	c-0.731-0.381-1.23-0.132-1.847,0.291c-1.063,0.727-2.281,1.213-3.43,1.778c-3.874,1.904-7.494,4.199-11.014,6.666
	c-1.824,1.278-3.563,2.679-5.334,4.032c-0.306,0.233-0.672,0.418-0.863,0.936c4.285,0.522,8.535,0.522,12.786,0.34
	c4.221-0.181,8.414-0.698,12.623-1.168c-0.626,0.601-1.474,0.636-2.215,0.785c-6.788,1.362-13.626,2.292-20.577,1.958
	c-0.717-0.035-1.429-0.159-2.145-0.2c-0.752-0.043-0.949,0.244-0.535,0.933c1.4,2.327,2.987,4.524,4.634,6.677
	c2.642,3.456,5.504,6.727,8.507,9.873c0.499,0.523,0.961,0.965,1.853,0.746c0.782-0.192,1.265,0.432,1.356,1.178
	c0.096,0.785-0.337,1.338-1.11,1.449c-0.789,0.113-1.471-0.355-1.416-1.102c0.08-1.084-0.561-1.569-1.215-2.146
	c-5.17-4.553-9.804-9.583-13.625-15.336c-0.98-1.476-2.016-1.562-3.295-0.298c-2.896,2.86-5.672,5.828-8.089,9.114
	c-0.382,0.519-0.781,0.948-0.251,1.671c0.407,0.555,0.156,1.234-0.417,1.553c-0.885,0.49-0.541,0.861-0.015,1.308
	c2.368,2.011,5.059,3.45,8.006,4.382c4.233,1.337,8.57,1.788,12.994,1.317C273.205,54.425,273.726,54.426,274.154,54.405z
	 M244.854,27.207c-0.745,0.188-0.581,0.877-0.664,1.354c-0.622,3.571-0.34,7.089,0.83,10.518c0.858,2.516,2.147,4.811,3.834,6.87
	c0.168,0.206,0.47,0.851,0.774,0.3c0.73-1.316,2.176-1.862,2.956-3.217c2.024-3.509,4.556-6.681,7.456-9.536
	c0.511-0.504,0.678-0.933-0.26-1.104c-3.385-0.619-6.664-1.614-9.874-2.831c-1.716-0.65-3.504-1.171-4.996-2.314
	c0.386,0.094,0.78,0.162,1.155,0.287c4.501,1.495,9.058,2.754,13.775,3.352c0.289,0.036,0.637,0.331,0.864-0.053
	c0.185-0.311-0.041-0.59-0.188-0.881c-1.534-3.07-2.886-6.218-3.816-9.527c-0.464-1.647-1.003-3.275-1.263-4.98
	c-0.192-1.262-0.942-1.772-1.701-1.233c-3.358,2.386-6.15,5.29-7.852,9.086C245.341,24.515,244.438,25.707,244.854,27.207z"/>
<path fill-rule="evenodd" clip-rule="evenodd" fill="#54BBBC" d="M83.348,35.634c0-3.677,0.034-7.354-0.027-11.03
	c-0.013-0.8,0.249-0.987,0.937-0.931c0.278,0.022,0.559,0.005,0.839,0.008c1.741,0.018,1.741,0.018,1.903,1.748
	c0.026,0.274-0.037,0.632,0.248,0.757c0.412,0.181,0.54-0.268,0.703-0.489c2.335-3.153,7.552-3.01,9.499-0.531
	c1.363,1.736,1.91,3.804,1.942,5.934c0.089,5.915,0.032,11.831,0.063,17.747c0.003,0.723-0.29,0.889-0.927,0.855
	c-0.718-0.037-1.445-0.07-2.156,0.007c-0.995,0.108-1.212-0.322-1.206-1.238c0.034-5.196,0.012-10.393,0.016-15.589
	c0.001-1.243-0.074-2.465-0.478-3.663c-0.49-1.453-1.433-2.419-2.792-2.399c-1.319,0.02-2.442,0.604-3.155,1.812
	c-0.752,1.274-1.065,2.653-1.065,4.119c0,5.237-0.029,10.473,0.017,15.709c0.009,1.035-0.318,1.403-1.311,1.195
	c-0.039-0.008-0.079-0.012-0.119-0.02c-0.906-0.187-2.136,0.621-2.666-0.283c-0.421-0.72-0.152-1.855-0.154-2.808
	c-0.009-3.638-0.004-7.274-0.004-10.912C83.419,35.634,83.384,35.634,83.348,35.634z"/>
<path fill-rule="evenodd" clip-rule="evenodd" fill="#54BBBC" d="M118.857,40.457c0.111,2.445-0.2,5.446,0.19,8.431
	c0.077,0.587-0.168,0.815-0.722,0.808c-0.399-0.006-0.799-0.006-1.199-0.005c-1.777,0.002-1.775,0.002-2.056-1.573
	c-0.045-0.253,0.091-0.64-0.29-0.689c-0.315-0.043-0.416,0.322-0.593,0.527c-2.219,2.559-5.859,2.865-8.304,0.598
	c-1.856-1.721-2.367-4.007-2.267-6.449c0.217-5.25,4.185-8.147,8.468-8.638c2.734-0.313,2.693-0.292,2.331-3.056
	c-0.492-3.754-3.067-4.133-5.955-3.492c-0.152,0.034-0.288,0.137-0.437,0.195c-1.939,0.75-2.208,0.578-2.551-1.559
	c-0.066-0.411,0.026-0.668,0.387-0.895c2.318-1.451,7.988-2.139,10.426,0.21c1.502,1.447,2.045,3.274,2.366,5.228
	c0.267,1.625,0.203,3.264,0.206,4.9C118.859,36.635,118.857,38.273,118.857,40.457z M114.765,39.484
	c0-0.799-0.011-1.598,0.004-2.396c0.009-0.456-0.064-0.777-0.636-0.763c-2.106,0.052-4.142,0.454-5.402,2.281
	c-1.38,2.001-1.538,4.255-0.454,6.478c0.761,1.561,2.183,2.043,3.808,1.402c1.498-0.59,2.096-1.875,2.454-3.31
	C114.842,41.964,114.766,40.72,114.765,39.484z"/>
<path fill-rule="evenodd" clip-rule="evenodd" fill="#54BBBC" d="M73.871,47.099c-0.955,1.286-1.919,2.315-3.331,2.668
	c-3.974,0.995-7.133-1.218-7.8-5.401c-0.931-5.842,2.544-10.15,8.498-10.908c2.45-0.312,2.603-0.421,2.258-2.902
	c-0.564-4.066-3.539-4.648-7.012-3.233c-1.045,0.426-1.433,0.627-1.736-0.698c-0.416-1.82-0.515-1.789,1.242-2.503
	c2.025-0.824,4.145-0.965,6.248-0.652c2.92,0.435,4.812,2.75,5.366,6.244c0.163,1.027,0.239,2.058,0.238,3.101
	c-0.006,5.037-0.004,10.076,0.033,15.113c0.014,1.899,0.061,1.898-1.863,1.72C74.358,49.491,74.358,49.491,73.871,47.099z
	 M73.718,39.665c0-0.798-0.036-1.598,0.011-2.393c0.042-0.718-0.188-0.955-0.944-0.953c-4.235,0.009-6.64,2.843-6.011,7.153
	c0.272,1.867,1.34,3.172,2.748,3.358c1.322,0.175,2.792-0.817,3.569-2.36C73.865,42.936,73.708,41.293,73.718,39.665z"/>
<path fill-rule="evenodd" clip-rule="evenodd" fill="#949599" d="M156.116,36.556c0.063,3.192-0.317,6.183-1.74,8.959
	c-1.821,3.552-5.188,5.196-8.717,4.239c-2.627-0.712-4.211-2.613-5.093-5.025c-1.857-5.08-1.875-10.251-0.205-15.387
	c0.667-2.05,1.848-3.821,3.759-4.968c4.019-2.413,8.638-0.635,10.617,4.098C155.833,31.093,156.203,33.849,156.116,36.556z
	 M143.349,36.704c-0.03,2.69,0.126,5.351,1.319,7.833c0.632,1.316,1.584,2.17,3.149,2.178c1.588,0.008,2.322-1.044,2.927-2.27
	c0.176-0.355,0.313-0.736,0.42-1.119c0.836-2.997,1.002-6.05,0.733-9.136c-0.174-1.996-0.443-3.975-1.443-5.758
	c-1.277-2.279-4.027-2.379-5.465-0.2c-0.282,0.428-0.483,0.919-0.665,1.402C143.465,31.915,143.315,34.298,143.349,36.704z"/>
<path fill-rule="evenodd" clip-rule="evenodd" fill="#54BBBC" d="M41.616,47.038c-2.196,3.012-5.231,3.876-8.093,2.22
	c-2.113-1.223-3.035-3.255-3.167-5.59c-0.332-5.871,2.834-9.552,8.673-10.222c2.422-0.278,2.411-0.276,2.13-2.769
	c-0.422-3.743-2.72-4.58-6.071-3.7c-0.192,0.051-0.375,0.137-0.564,0.198c-1.772,0.567-1.719,0.55-2.292-1.323
	c-0.24-0.782,0.062-1.116,0.651-1.399c2.268-1.088,4.671-1.391,7.113-0.933c2.88,0.541,4.792,2.838,5.233,5.963
	c0.19,1.349,0.26,2.698,0.256,4.059c-0.011,3.877-0.001,7.754,0.001,11.63c0,0.641,0.027,1.28,0.012,1.919
	c-0.02,0.787,0.599,1.854,0.022,2.283c-0.803,0.597-2,0.157-3.025,0.211c-0.562,0.03-0.59-0.379-0.637-0.805
	C41.795,48.206,42.007,47.586,41.616,47.038z M41.367,40.19c0-1.255-0.043-2.095,0.013-2.927c0.049-0.73-0.186-0.987-0.937-0.938
	c-4.824,0.316-6.642,3.141-5.937,7.543c0.282,1.76,1.5,2.875,2.857,2.967c1.294,0.088,2.851-1.047,3.488-2.477
	C41.514,42.877,41.354,41.318,41.367,40.19z"/>
<path fill-rule="evenodd" clip-rule="evenodd" fill="#949599" d="M202.666,37.056c-1.72,0.001-3.439,0.019-5.159-0.008
	c-0.595-0.009-0.912,0.144-0.835,0.806c0.16,1.386,0.19,2.789,0.607,4.138c1.226,3.966,3.854,5.407,7.965,4.363
	c1.881-0.478,1.818-0.462,2.315,1.442c0.214,0.818-0.085,1.1-0.732,1.314c-5.894,1.957-11.773,0.705-13.544-6.896
	c-1.04-4.464-0.841-8.881,0.768-13.194c0.729-1.958,1.907-3.63,3.73-4.708c3.873-2.289,8.013-0.691,9.825,3.706
	c1.112,2.7,1.132,5.528,1.092,8.374c-0.01,0.655-0.399,0.666-0.873,0.664C206.105,37.05,204.387,37.055,202.666,37.056z
	 M200.831,33.965c1.037,0,2.074-0.021,3.11,0.008c0.568,0.015,0.902-0.091,0.866-0.773c-0.09-1.725-0.292-3.418-1.218-4.927
	c-1.433-2.334-3.938-2.302-5.329,0.069c-0.882,1.502-1.323,3.134-1.457,4.876c-0.048,0.628,0.116,0.767,0.679,0.755
	C198.598,33.949,199.715,33.966,200.831,33.965z"/>
<path fill-rule="evenodd" clip-rule="evenodd" fill="#949599" d="M227.478,49.564c-1.447,0-2.683-0.029-3.916,0.012
	c-0.677,0.022-0.753-0.477-0.934-0.9c-0.642-1.506-1.287-3.011-1.905-4.527c-0.616-1.512-1.201-3.037-1.799-4.555
	c-0.405,0.057-0.37,0.386-0.464,0.62c-1.114,2.78-2.242,5.554-3.327,8.345c-0.281,0.722-0.638,1.102-1.485,1.026
	c-0.978-0.086-1.968-0.021-3.144-0.021c1.271-2.691,2.462-5.209,3.649-7.727c0.698-1.48,1.369-2.975,2.097-4.439
	c0.274-0.552,0.276-1.007,0.01-1.569c-1.707-3.611-3.383-7.236-5.06-10.861c-0.583-1.26-0.571-1.266,0.843-1.269
	c3.09-0.005,3.089-0.004,4.249,2.821c0.949,2.313,1.902,4.625,2.871,6.98c0.379-0.179,0.418-0.507,0.53-0.784
	c1.093-2.702,2.197-5.398,3.268-8.108c0.251-0.634,0.576-1.01,1.316-0.911c0.393,0.052,0.798,0.006,1.197,0.007
	c2.108,0.001,2.124,0.009,1.193,1.957c-1.568,3.279-3.142,6.557-4.755,9.814c-0.353,0.713-0.366,1.303-0.021,2.027
	c1.646,3.462,3.243,6.947,4.854,10.426C226.962,48.392,227.164,48.862,227.478,49.564z"/>
<path fill-rule="evenodd" clip-rule="evenodd" fill="#949599" d="M127.539,37.424c0.056,1.563,0.223,3.589,1.087,5.48
	c1.39,3.045,3.732,4.186,6.932,3.246c0.957-0.281,1.144,0.02,1.283,0.83c0.364,2.12,0.041,2.561-2.197,2.807
	c-5.227,0.574-8.579-1.398-10.218-6.402c-1.678-5.122-1.534-10.247,1.065-15.093c2.067-3.854,5.933-5.55,10.214-4.666
	c1.501,0.311,1.577,0.429,1.216,1.9c-0.057,0.232-0.143,0.463-0.163,0.699c-0.088,1.024-0.423,1.268-1.527,0.919
	c-3.182-1.003-5.854,0.78-6.954,4.482C127.763,33.358,127.528,35.135,127.539,37.424z"/>
<path fill-rule="evenodd" clip-rule="evenodd" fill="#54BBBC" d="M54.884,27.61c0.749-1.261,1.306-2.222,2.161-2.972
	c0.585-0.513,1.238-0.892,1.959-1.129c1.775-0.586,2.288-0.211,2.287,1.607c0,0.24-0.03,0.484,0.006,0.719
	c0.195,1.28-0.1,1.85-1.634,1.923c-2.139,0.103-3.155,1.841-3.832,3.658c-0.417,1.119-0.56,2.315-0.555,3.53
	c0.022,4.517-0.01,9.037,0.024,13.554c0.006,0.819-0.206,1.102-1.063,1.107c-3.068,0.02-3.064,0.052-3.064-3.06
	c0.001-5.357,0.016-10.715-0.011-16.073c-0.01-1.877-0.101-3.754-0.205-5.629c-0.041-0.741,0.117-1.06,0.958-1.065
	c2.775-0.017,2.774-0.051,2.894,2.792C54.818,26.802,54.841,27.031,54.884,27.61z"/>
</svg>
